<svg version="1.1" viewBox="0 0 96 96" xmlns="http://www.w3.org/2000/svg" xmlns:xlink="http://www.w3.org/1999/xlink" id="Icons_Cat" overflow="hidden"><path d=" M 77.4 24.2 L 69 12 L 69 8.4 C 69 7.5 67.9 7.1 67.3 7.7 L 53.5 20.6 C 51.9 22.1 51 24.2 51 26.4 L 51 27 C 51 35.5 28 39 28 66 C 28 69.6 28.2 72.7 28.7 75.3 C 28.5 75.1 28.3 74.9 28 74.7 C 25.7 72.5 23 67.6 23 57 C 23 53.3 24.8 49.5 26.6 45.9 C 29.4 40.1 32.6 33.5 27.1 27.9 C 25.9 26.7 24 26.7 22.9 27.9 C 21.7 29.1 21.7 31 22.9 32.1 C 25.2 34.4 24.2 37.1 21.3 43.2 C 19.2 47.3 17 52 17 57 C 17 67.3 19.4 74.8 24 79.2 C 26.4 81.5 29 82.4 30.8 82.8 C 32.7 86.8 35 88 36 88 L 48 88 C 49.7 88 51 86.7 51 85 C 51 83.5 49.9 82.2 48.4 82 L 45 82 C 48.8 79.9 52 75.6 52 68 C 52 61.4 50.7 58.7 46.3 56.3 C 45.6 55.9 45.3 55 45.7 54.3 C 46.1 53.6 47 53.3 47.7 53.7 C 53.8 56.9 55 61.4 55 68 C 55 71.6 54.3 74.8 53 77.5 L 53 85 C 53 86.7 54.3 88 56 88 C 57.7 88 59 86.7 59 85 L 59 75.8 C 59.7 75 60.4 74.1 61 73.1 L 61 85 C 61 86.7 62.3 88 64 88 C 65.7 88 67 86.7 67 85 L 67 58.4 C 67.7 55.4 68 52.8 68 51 C 68 43.1 66 42.3 66 38 C 66 35.8 67.8 34 70 34 C 74.4 34 78 30.4 78 26 C 78 25.3 77.8 24.7 77.4 24.2 Z"/></svg>