<svg version="1.1" viewBox="0 0 96 96" xmlns="http://www.w3.org/2000/svg" xmlns:xlink="http://www.w3.org/1999/xlink" id="Icons_Rat" overflow="hidden"><path d=" M 84.7 47.4 L 66.7 44.2 L 61.2 39.9 C 60.6 39.5 59.8 39.8 59.6 40.5 L 58.4 45.3 C 54.1 41.7 47.6 39.3 40.3 39 C 30.1 38.7 21 46.1 20.1 56.3 C 19.8 59.4 20.3 62.3 21.3 64.9 C 15.7 61.3 12 55.1 12 48 C 12 37 20.9 28.1 31.9 28 C 32.9 28 33.9 27.3 34 26.3 C 34.2 25 33.2 24 32 24 C 18.9 24 8.2 34.5 8 47.6 C 7.8 61 19.1 72 32.5 72 L 43 72 C 44.7 72 46 70.7 46 69 C 46 67.3 44.7 66 43 66 L 38.2 66 C 39.6 65 40.5 63.4 40.5 61.5 C 40.5 59.1 38.9 56.9 36.6 56.2 C 35.8 56 35.4 55.1 35.6 54.3 C 35.8 53.5 36.7 53.1 37.5 53.3 C 41.1 54.4 43.6 57.7 43.6 61.4 C 43.6 61.9 43.5 62.4 43.4 62.9 C 46.5 63.1 49.1 65.7 49.1 68.9 C 49.1 69.6 49 70.3 48.7 70.9 C 51.3 71.5 54.4 71.9 58.1 71.9 L 67.1 71.9 C 68.8 71.9 70.1 70.6 70.1 68.9 C 70.1 67.2 68.8 65.9 67.1 65.9 L 64.1 65.9 L 86.6 53.7 C 87.5 53.2 88 52.3 88.1 51.4 C 88.1 49.5 86.6 47.8 84.7 47.4 Z"/></svg>